<svg id="visual" viewBox="0 0 900 600" width="900" height="600" xmlns="http://www.w3.org/2000/svg" xmlns:xlink="http://www.w3.org/1999/xlink" version="1.1"><path d="M0 49L11.5 49C23 49 46 49 69 45C92 41 115 33 138.2 29C161.3 25 184.7 25 207.8 26C231 27 254 29 277 34C300 39 323 47 346 51C369 55 392 55 415.2 50C438.3 45 461.7 35 484.8 32C508 29 531 33 554 38C577 43 600 49 623 47C646 45 669 35 692.2 36C715.3 37 738.7 49 761.8 51C785 53 808 45 831 43C854 41 877 45 888.5 47L900 49L900 0L888.5 0C877 0 854 0 831 0C808 0 785 0 761.8 0C738.7 0 715.3 0 692.2 0C669 0 646 0 623 0C600 0 577 0 554 0C531 0 508 0 484.8 0C461.7 0 438.3 0 415.2 0C392 0 369 0 346 0C323 0 300 0 277 0C254 0 231 0 207.8 0C184.7 0 161.3 0 138.2 0C115 0 92 0 69 0C46 0 23 0 11.5 0L0 0Z" fill="#a868ff"></path><path d="M0 145L11.5 135C23 125 46 105 69 93C92 81 115 77 138.2 81C161.3 85 184.7 97 207.8 101C231 105 254 101 277 103C300 105 323 113 346 117C369 121 392 121 415.2 120C438.3 119 461.7 117 484.8 116C508 115 531 115 554 113C577 111 600 107 623 102C646 97 669 91 692.2 98C715.3 105 738.7 125 761.8 127C785 129 808 113 831 109C854 105 877 113 888.5 117L900 121L900 47L888.5 45C877 43 854 39 831 41C808 43 785 51 761.8 49C738.7 47 715.3 35 692.2 34C669 33 646 43 623 45C600 47 577 41 554 36C531 31 508 27 484.8 30C461.7 33 438.3 43 415.2 48C392 53 369 53 346 49C323 45 300 37 277 32C254 27 231 25 207.8 24C184.7 23 161.3 23 138.2 27C115 31 92 39 69 43C46 47 23 47 11.5 47L0 47Z" fill="#9b53ff"></path><path d="M0 235L11.5 238C23 241 46 247 69 246C92 245 115 237 138.2 228C161.3 219 184.7 209 207.8 217C231 225 254 251 277 253C300 255 323 233 346 235C369 237 392 263 415.2 265C438.3 267 461.7 245 484.8 242C508 239 531 255 554 258C577 261 600 251 623 239C646 227 669 213 692.2 210C715.3 207 738.7 215 761.8 220C785 225 808 227 831 221C854 215 877 201 888.5 194L900 187L900 119L888.5 115C877 111 854 103 831 107C808 111 785 127 761.8 125C738.7 123 715.3 103 692.2 96C669 89 646 95 623 100C600 105 577 109 554 111C531 113 508 113 484.8 114C461.7 115 438.3 117 415.2 118C392 119 369 119 346 115C323 111 300 103 277 101C254 99 231 103 207.8 99C184.7 95 161.3 83 138.2 79C115 75 92 79 69 91C46 103 23 123 11.5 133L0 143Z" fill="#8d3dff"></path><path d="M0 271L11.5 277C23 283 46 295 69 295C92 295 115 283 138.2 273C161.3 263 184.7 255 207.8 262C231 269 254 291 277 290C300 289 323 265 346 265C369 265 392 289 415.2 295C438.3 301 461.7 289 484.8 286C508 283 531 289 554 290C577 291 600 287 623 277C646 267 669 251 692.2 246C715.3 241 738.7 247 761.8 253C785 259 808 265 831 263C854 261 877 251 888.5 246L900 241L900 185L888.5 192C877 199 854 213 831 219C808 225 785 223 761.8 218C738.7 213 715.3 205 692.2 208C669 211 646 225 623 237C600 249 577 259 554 256C531 253 508 237 484.8 240C461.7 243 438.3 265 415.2 263C392 261 369 235 346 233C323 231 300 253 277 251C254 249 231 223 207.8 215C184.7 207 161.3 217 138.2 226C115 235 92 243 69 244C46 245 23 239 11.5 236L0 233Z" fill="#7d1eff"></path><path d="M0 451L11.5 445C23 439 46 427 69 426C92 425 115 435 138.2 434C161.3 433 184.7 421 207.8 418C231 415 254 421 277 430C300 439 323 451 346 450C369 449 392 435 415.2 427C438.3 419 461.7 417 484.8 415C508 413 531 411 554 417C577 423 600 437 623 432C646 427 669 403 692.2 396C715.3 389 738.7 399 761.8 400C785 401 808 393 831 391C854 389 877 393 888.5 395L900 397L900 239L888.5 244C877 249 854 259 831 261C808 263 785 257 761.8 251C738.7 245 715.3 239 692.2 244C669 249 646 265 623 275C600 285 577 289 554 288C531 287 508 281 484.8 284C461.7 287 438.3 299 415.2 293C392 287 369 263 346 263C323 263 300 287 277 288C254 289 231 267 207.8 260C184.7 253 161.3 261 138.2 271C115 281 92 293 69 293C46 293 23 281 11.5 275L0 269Z" fill="#7000f5"></path><path d="M0 487L11.5 486C23 485 46 483 69 482C92 481 115 481 138.2 476C161.3 471 184.7 461 207.8 464C231 467 254 483 277 493C300 503 323 507 346 503C369 499 392 487 415.2 480C438.3 473 461.7 471 484.8 471C508 471 531 473 554 478C577 483 600 491 623 483C646 475 669 451 692.2 442C715.3 433 738.7 439 761.8 440C785 441 808 437 831 438C854 439 877 445 888.5 448L900 451L900 395L888.5 393C877 391 854 387 831 389C808 391 785 399 761.8 398C738.7 397 715.3 387 692.2 394C669 401 646 425 623 430C600 435 577 421 554 415C531 409 508 411 484.8 413C461.7 415 438.3 417 415.2 425C392 433 369 447 346 448C323 449 300 437 277 428C254 419 231 413 207.8 416C184.7 419 161.3 431 138.2 432C115 433 92 423 69 424C46 425 23 437 11.5 443L0 449Z" fill="#6700e1"></path><path d="M0 559L11.5 556C23 553 46 547 69 543C92 539 115 537 138.2 538C161.3 539 184.7 543 207.8 545C231 547 254 547 277 550C300 553 323 559 346 558C369 557 392 549 415.2 546C438.3 543 461.7 545 484.8 550C508 555 531 563 554 566C577 569 600 567 623 561C646 555 669 545 692.2 542C715.3 539 738.7 543 761.8 546C785 549 808 551 831 551C854 551 877 549 888.5 548L900 547L900 449L888.5 446C877 443 854 437 831 436C808 435 785 439 761.8 438C738.7 437 715.3 431 692.2 440C669 449 646 473 623 481C600 489 577 481 554 476C531 471 508 469 484.8 469C461.7 469 438.3 471 415.2 478C392 485 369 497 346 501C323 505 300 501 277 491C254 481 231 465 207.8 462C184.7 459 161.3 469 138.2 474C115 479 92 479 69 480C46 481 23 483 11.5 484L0 485Z" fill="#5f01cd"></path><path d="M0 601L11.5 601C23 601 46 601 69 601C92 601 115 601 138.2 601C161.3 601 184.7 601 207.8 601C231 601 254 601 277 601C300 601 323 601 346 601C369 601 392 601 415.2 601C438.3 601 461.7 601 484.8 601C508 601 531 601 554 601C577 601 600 601 623 601C646 601 669 601 692.2 601C715.3 601 738.7 601 761.8 601C785 601 808 601 831 601C854 601 877 601 888.5 601L900 601L900 545L888.5 546C877 547 854 549 831 549C808 549 785 547 761.8 544C738.7 541 715.3 537 692.2 540C669 543 646 553 623 559C600 565 577 567 554 564C531 561 508 553 484.8 548C461.7 543 438.3 541 415.2 544C392 547 369 555 346 556C323 557 300 551 277 548C254 545 231 545 207.8 543C184.7 541 161.3 537 138.2 536C115 535 92 537 69 541C46 545 23 551 11.5 554L0 557Z" fill="#5601ba"></path></svg>