<svg id="visual" viewBox="0 0 1980 1280" width="1980" height="1280" xmlns="http://www.w3.org/2000/svg" xmlns:xlink="http://www.w3.org/1999/xlink" version="1.1"><path d="M0 244L180 167L360 167L540 219L720 193L900 231L1080 167L1260 142L1440 129L1620 244L1800 180L1980 129L1980 0L1800 0L1620 0L1440 0L1260 0L1080 0L900 0L720 0L540 0L360 0L180 0L0 0Z" fill="#2d3cd5"></path><path d="M0 449L180 385L360 359L540 423L720 487L900 539L1080 359L1260 487L1440 423L1620 526L1800 462L1980 321L1980 127L1800 178L1620 242L1440 127L1260 140L1080 165L900 229L720 191L540 217L360 165L180 165L0 242Z" fill="#2a2fbf"></path><path d="M0 667L180 795L360 577L540 667L720 782L900 948L1080 705L1260 705L1440 769L1620 718L1800 782L1980 884L1980 319L1800 460L1620 524L1440 421L1260 485L1080 357L900 537L720 485L540 421L360 357L180 383L0 447Z" fill="#2621aa"></path><path d="M0 795L180 974L360 782L540 820L720 948L900 1063L1080 846L1260 820L1440 974L1620 820L1800 961L1980 987L1980 882L1800 780L1620 716L1440 767L1260 703L1080 703L900 946L720 780L540 665L360 575L180 793L0 665Z" fill="#211396"></path><path d="M0 1281L180 1281L360 1281L540 1281L720 1281L900 1281L1080 1281L1260 1281L1440 1281L1620 1281L1800 1281L1980 1281L1980 985L1800 959L1620 818L1440 972L1260 818L1080 844L900 1061L720 946L540 818L360 780L180 972L0 793Z" fill="#1a0382"></path></svg>