<?xml version="1.0" encoding="UTF-8"?>
<!DOCTYPE svg PUBLIC "-//W3C//DTD SVG 1.1//EN" "http://www.w3.org/Graphics/SVG/1.1/DTD/svg11.dtd">
<!-- Creator: CorelDRAW 2021.5 -->
<svg xmlns="http://www.w3.org/2000/svg" xml:space="preserve" width="166.775mm" height="110.275mm" version="1.1" style="shape-rendering:geometricPrecision; text-rendering:geometricPrecision; image-rendering:optimizeQuality; fill-rule:evenodd; clip-rule:evenodd"
viewBox="0 0 16606.25 10980.36"
 xmlns:xlink="http://www.w3.org/1999/xlink"
 xmlns:xodm="http://www.corel.com/coreldraw/odm/2003">
 <defs>
  <style type="text/css">
   <![CDATA[
    .str2 {stroke:#1F2F79;stroke-width:35.13;stroke-miterlimit:10}
    .str0 {stroke:#5D9AD4;stroke-width:35.13;stroke-miterlimit:10}
    .str3 {stroke:#AE3838;stroke-width:26.35;stroke-linecap:round;stroke-miterlimit:10}
    .str1 {stroke:#1F2F79;stroke-width:35.13;stroke-linecap:round;stroke-miterlimit:10}
    .str5 {stroke:#261F64;stroke-width:35.13;stroke-linecap:round;stroke-miterlimit:10}
    .str6 {stroke:#2F2464;stroke-width:35.13;stroke-linecap:round;stroke-miterlimit:10}
    .str4 {stroke:#A83B4F;stroke-width:35.13;stroke-linecap:round;stroke-miterlimit:10}
    .str7 {stroke:#AE3838;stroke-width:35.13;stroke-linecap:round;stroke-miterlimit:10}
    .fil2 {fill:none;fill-rule:nonzero}
    .fil0 {fill:#FEFEFE;fill-rule:nonzero}
    .fil22 {fill:#132842;fill-rule:nonzero}
    .fil4 {fill:#16184D;fill-rule:nonzero}
    .fil15 {fill:#1C2A44;fill-rule:nonzero}
    .fil13 {fill:#261F64;fill-rule:nonzero}
    .fil29 {fill:#2A346E;fill-rule:nonzero}
    .fil7 {fill:#2B529E;fill-rule:nonzero}
    .fil21 {fill:#2F2464;fill-rule:nonzero}
    .fil8 {fill:#34BAB3;fill-rule:nonzero}
    .fil6 {fill:#3B64AC;fill-rule:nonzero}
    .fil17 {fill:#3F64AE;fill-rule:nonzero}
    .fil11 {fill:#41D8D3;fill-rule:nonzero}
    .fil14 {fill:#463B8C;fill-rule:nonzero}
    .fil3 {fill:#5D9AD4;fill-rule:nonzero}
    .fil1 {fill:#6BC8ED;fill-rule:nonzero}
    .fil9 {fill:#75EBDB;fill-rule:nonzero}
    .fil20 {fill:#931136;fill-rule:nonzero}
    .fil16 {fill:#A83B4F;fill-rule:nonzero}
    .fil19 {fill:#CF2F44;fill-rule:nonzero}
    .fil12 {fill:#EB6B69;fill-rule:nonzero}
    .fil24 {fill:#EB8075;fill-rule:nonzero}
    .fil28 {fill:#EB9738;fill-rule:nonzero}
    .fil5 {fill:#EBCDC4;fill-rule:nonzero}
    .fil26 {fill:#F4CC52;fill-rule:nonzero}
    .fil10 {fill:#F69787;fill-rule:nonzero}
    .fil18 {fill:#F99789;fill-rule:nonzero}
    .fil23 {fill:#F9A897;fill-rule:nonzero}
    .fil25 {fill:#FDE46B;fill-rule:nonzero}
    .fil27 {fill:#FFF2A5;fill-rule:nonzero}
   ]]>
  </style>
 </defs>
 <g id="BACKGROUND">
  <metadata id="CorelCorpID_0Corel-Layer"/>
  <g id="_2532492434432">
   <path class="fil0" d="M11620.25 759.54c-3037.29,870 -3875.05,125.38 -4881.17,-355.61 -1635.38,-781.73 -3719.78,-385.73 -5083.61,816.76 -1363.84,1202.49 -1968.81,3218.23 -1496.69,4985.77 472.12,1767.55 1998.47,3199.55 3774.87,3542.32 2144.87,413.74 4356.51,749.74 6501.61,336.23 2144.87,-413.52 4210.12,-1664.8 5080.8,-3747.55 1321.34,-3161.03 -719.85,-6487.6 -3895.82,-5577.91z"/>
  </g>
 </g>
 <g id="OBJECTS">
  <metadata id="CorelCorpID_1Corel-Layer"/>
  <g id="_2532492440912">
   <g>
    <g>
     <path class="fil1" d="M5858.11 4757.88c-85.45,18.2 -185.86,28.72 -250.54,-56.28 -35.03,-45.53 -60.47,-117.68 -73.09,-196.14 -10.5,-64.9 -11.91,-131.45 -2.57,-189.83 12.84,-122.58 67.48,-187.03 152.48,-265.01 84.52,-81.49 194.26,-178.62 261.74,-309.38 60.48,-115.11 80.33,-253.33 61.65,-369.15l-12.14 -46.7c-33.63,-123.28 -125.15,-202.67 -239.57,-220.65 -38.06,-6.06 -79.62,-4.43 -120.02,4.2 -80.78,17.05 -157.37,61.65 -212.01,126.09 -66.08,81.02 -93.39,199.63 -79.38,288.36l10.5 36.66c23.11,86.86 98.77,123.75 160.88,163.44 37.35,30.83 74.24,58.37 80.78,99.23 3.28,20.31 2.1,41.8 -12.15,69.58 -43.66,76.35 -160.17,189.13 -290.45,216.69l-13.54 2.8c-135.9,21.72 -276.93,-47.17 -364.26,-215.52 -32.69,-60.01 -58.6,-135.66 -71.21,-214.11 -22.41,-139.87 -6.07,-298.41 65.38,-433.6 114.18,-214.58 375.69,-379.42 642.57,-453.44l58.37 -12.38c247.04,-52.3 491.98,-30.35 661.02,39.7 179.09,74.95 269.44,203.84 313.11,360.28l27.56 114.17c20.31,126.32 14.47,265.01 -20.79,392.27 -43.42,164.38 -131.45,310.08 -239.79,417.49 -108.11,107.41 -236.3,176.98 -286.73,268.75 -45.76,90.83 -18.21,204.77 -34.79,275.29 -17.05,67.01 -87.79,88.96 -173.02,107.18zm77.29 657.03l0 0c181.89,-52.52 307.27,-227.41 283.69,-374.05 -13.07,-81.72 -60,-142.43 -125.86,-177.69 -86.15,-45.3 -148.49,-28.49 -266.18,-10.5 -67.48,14.24 -137.53,39.7 -191,82.88 -86.15,70.99 -122.35,163.45 -109.5,273.42 11.9,74.95 60.94,149.44 132.15,187.27 66.55,38.75 164.61,42.73 245.64,25.44l31.06 -6.77z"/>
    </g>
    <g>
     <path class="fil1" d="M10952.92 3520.82c-69.35,13.77 -150.84,20.78 -204.07,-52.53 -28.96,-39.22 -49.97,-101.11 -60.71,-168.12 -8.87,-55.33 -10.5,-112.07 -3.5,-161.58 9.57,-103.89 53.69,-157.6 122.11,-222.28 68.19,-67.49 156.68,-148.03 210.61,-257.78 48.34,-96.67 63.52,-213.64 47.64,-312.65l-10.27 -39.92c-28.26,-105.55 -103.21,-174.66 -196.37,-192.17 -31.06,-5.84 -64.68,-5.14 -97.6,1.17 -65.62,13.07 -127.49,49.27 -171.62,102.97 -53,67.48 -74.71,167.89 -62.57,243.54l8.87 31.29c19.38,74.25 81.02,107.17 131.92,141.97 30.59,26.84 60.71,50.89 66.54,85.92 2.81,17.51 2.1,35.72 -9.34,58.84 -35.03,63.98 -128.89,157.6 -234.66,178.62l-10.97 2.1c-110.21,15.88 -225.55,-45.53 -297.7,-190.29 -27.08,-51.61 -48.79,-116.28 -59.53,-183.3 -19.15,-119.31 -7.01,-253.79 49.97,-367.05 91.3,-180.02 302.84,-314.98 519.28,-372.89l47.41 -9.34c200.57,-39.69 399.74,-16.11 537.73,46.71 146.16,67 220.41,178.38 257.08,312.17l23.35 97.37c17.28,107.64 13.54,225.31 -14.25,332.96 -34.08,138.92 -104.84,260.81 -191.93,350.24 -87.33,89.2 -191,145.93 -231.16,222.98 -36.66,76.11 -13.54,173.72 -26.39,233.26 -13.31,56.74 -70.75,74.25 -139.86,87.79zm67.24 559.92l0 0c147.57,-41.09 248.21,-187.27 228.12,-312.42 -11.2,-69.81 -49.73,-122.12 -103.67,-153.63 -70.29,-40.16 -120.95,-27.09 -216.68,-14.24 -54.65,10.97 -111.61,31.05 -154.81,66.77 -69.58,58.61 -98.54,136.59 -87.1,230.22 10.27,63.98 50.67,128.19 108.81,161.58 54.4,34.32 134.25,39.46 199.86,26.39l25.45 -4.67z"/>
    </g>
    <g>
     <path class="fil1" d="M13781.91 1672.96c-55.8,-16.58 -118.38,-42.5 -129.12,-115.81 -6.07,-39.46 2.1,-92.22 19.84,-144.53 14.72,-43.43 35.26,-85 59.31,-117.91 46.7,-71.44 99.47,-93.4 174.42,-113.94 75.65,-22.88 171.15,-47.17 252.64,-106.01 72.39,-51.37 128.19,-130.29 154.34,-207.81l7.95 -32.69c19.84,-86.87 -8.64,-165.55 -70.06,-213.88 -20.31,-16.11 -45.3,-28.49 -71.91,-36.42 -53,-15.65 -112.08,-13.08 -164.84,9.1 -64.67,28.49 -118.85,92.93 -138.69,152.01l-5.61 25.91c-14.24,60.95 18.21,108.35 42.03,152.94 12.14,31.06 24.98,60.01 15.64,87.33 -4.67,13.54 -12.14,26.39 -29.41,38.99 -49.98,32.93 -154.58,64.68 -239.8,39.46l-8.87 -2.56c-86.63,-30.6 -147.34,-118.86 -144.77,-251.01 0,-47.64 8.87,-102.73 26.62,-155.03 31.52,-93.4 92.01,-186.1 176.99,-246.1 135.66,-95.27 341.83,-112.08 522.32,-71.21l38.3 11.2c161.82,47.86 298.41,140.81 375.23,238.88 81.25,104.36 92.93,213.17 68.41,323.62l-20.31 79.38c-28.49,84.29 -76.35,168.12 -137.76,235.13 -78,87.33 -176.52,148.49 -274.35,179.79 -97.83,31.29 -195.44,32.45 -254.28,72.85 -56.04,41.09 -76.35,120.48 -108.57,158.54 -31.05,35.73 -79.85,26.39 -135.66,9.81zm-164.84 430.32l0 0c123.52,26.63 253.1,-40.63 286.26,-138.69 18.45,-54.64 10.5,-107.17 -17.05,-150.6 -36.18,-55.8 -77.99,-65.61 -152.93,-92.92 -44.13,-13.08 -93.63,-20.08 -138.69,-10.97 -73.32,15.87 -124.22,61.17 -151.77,133.09 -17.05,50.19 -11.91,111.84 17.51,158.3 26.62,45.53 83.12,79.63 135.89,95.27l20.78 6.53z"/>
    </g>
    <g>
     <path class="fil1" d="M3194.88 1340c-44.36,11.67 -96.89,19.84 -134.03,-24.98 -20.07,-24.05 -36.18,-62.81 -45.76,-105.31 -7.94,-35.02 -11.2,-71.45 -8.4,-103.44 2.33,-67.25 28.73,-103.44 70.52,-148.03 41.56,-46.23 95.73,-101.8 126.32,-174.41 27.55,-64.21 32.93,-139.87 18.91,-202.67l-8.17 -25.22c-22.17,-66.55 -73.54,-107.88 -134.48,-115.12 -20.31,-2.57 -42.03,-0.7 -63.05,4.91 -42.03,11.2 -80.54,37.12 -107.17,73.54 -31.75,45.53 -41.79,110.91 -31.06,159.01l7.01 19.62c15.41,46.7 56.5,65.38 90.82,85.45 20.79,16.11 41.33,30.13 46.23,52.31 2.57,10.97 2.57,22.89 -3.72,38.07 -20.08,42.49 -77.29,106.7 -145.01,124.68l-7 1.87c-70.75,14.95 -147.58,-19.62 -199.87,-109.51 -19.62,-31.98 -35.96,-72.61 -45.53,-115.11 -17.04,-75.66 -14.24,-162.51 18.22,-237.93 52.3,-119.55 183.99,-215.29 321.75,-261.52l30.36 -7.94c128.18,-34.09 258.24,-27.32 349.77,7.01 97.12,36.89 149.67,105.3 178.38,189.59l18.68 61.65c15.41,68.42 17.51,144.06 3.5,214.35 -16.81,90.59 -57.9,172.08 -110.9,233.02 -53,60.94 -117.91,101.8 -141.02,152.94 -20.78,50.43 -2.1,112.07 -8.17,150.83 -6.3,37.12 -42.73,50.67 -87.1,62.34zm65.15 356.78l0 0c93.86,-32.69 153.4,-130.76 135.66,-210.15 -9.81,-44.36 -36.89,-76.35 -73.09,-94.1 -47.17,-22.88 -79.38,-12.14 -140.8,0.24 -35.02,9.33 -70.99,24.75 -97.59,49.5 -42.74,40.63 -58.38,91.76 -47.64,151.53 9.1,40.64 37.82,80.1 76.58,99.23 36.42,19.63 88.49,19.63 130.29,8.41l16.58 -4.67z"/>
    </g>
    <g>
     <path class="fil1" d="M7905.37 1822.39c-38.76,10.29 -84.29,17.98 -113.94,-15.63 -16.12,-17.98 -28.03,-47.64 -34.09,-80.1 -5.14,-26.85 -6.07,-54.86 -2.1,-79.86 5.37,-51.83 29.88,-80.78 68.18,-116.27 38.06,-36.89 87.56,-81.26 117.45,-138.23 27.09,-50.43 35.26,-109.04 26.39,-157.15l-5.83 -19.38c-15.88,-50.9 -57.91,-81.25 -109.75,-85.22 -17.28,-1.4 -36.18,0.7 -54.4,5.61 -36.66,9.81 -71.21,30.82 -95.73,59.77 -29.66,36.18 -41.57,86.86 -34.8,123.75l4.91 14.95c10.97,35.73 45.3,48.8 73.78,63.51 17.05,11.91 34.08,22.18 37.12,39.22 1.64,8.41 1.17,17.51 -5.13,29.66 -19.39,33.39 -71.92,84.52 -131,100.4l-6.06 1.63c-61.65,13.54 -126.09,-10.97 -166.49,-79.15 -15.17,-24.29 -27.32,-55.11 -33.39,-87.8 -10.74,-58.13 -4.2,-125.38 27.78,-184.45 50.91,-93.87 169.05,-171.38 289.77,-210.85l26.39 -7.01c112.08,-29.88 223.45,-28.25 300.51,-4.2 81.71,25.92 123.27,77.29 143.82,141.73l13.07 47.16c9.81,52.54 7.71,110.91 -7.71,165.55 -18.91,70.52 -58.37,134.49 -106.94,183.06 -48.55,48.56 -106.46,81.96 -129.11,122.12 -20.31,39.7 -7.48,86.62 -14.48,116.98 -7.48,28.49 -39.7,39.93 -78.22,50.19zm38.06 273.89l0 0c82.42,-27.79 138.47,-105.31 127.25,-166.25 -6.3,-34.09 -27.78,-57.91 -58.14,-70.75 -39.46,-16.35 -67.48,-7.24 -120.94,3.96 -30.6,8.17 -62.34,21.02 -86.4,40.86 -38.75,32.69 -54.86,72.62 -48.57,118.38 5.84,31.29 28.49,60.94 60.95,74.48 30.35,14.25 74.95,12.62 111.6,3.04l14.25 -3.73z"/>
    </g>
    <g>
     <path class="fil1" d="M920.2 4372.14c-36.42,16.81 -79.86,32.45 -115.12,4.43 -19.15,-14.94 -35.96,-42.02 -47.63,-73.08 -9.58,-25.69 -15.41,-53 -15.88,-78.22 -3.74,-52.07 15.4,-84.76 46.7,-126.32 31.05,-42.96 71.91,-95.27 91.53,-156.68 17.74,-54.17 15.64,-113.47 -1.4,-159.47l-9.1 -17.98c-24.52,-47.17 -71.21,-70.05 -123.05,-64.91 -17.28,1.63 -35.5,7 -52.77,14.95 -34.32,16.11 -64.68,42.73 -83.82,75.42 -22.88,40.85 -25.69,92.93 -12.61,127.95l7.47 14.01c17.05,33.39 53.23,40.16 83.82,49.73 18.92,8.65 37.36,15.88 43.43,32.23 3.04,8.17 4.2,17.05 0,30.12 -13.31,36.42 -56.04,95.73 -111.38,121.65l-5.83 2.57c-58.38,24.05 -126.09,10.97 -177.7,-48.8 -19.15,-21.25 -36.42,-49.51 -48.09,-80.55 -20.78,-55.33 -25.92,-122.58 -4.91,-186.33 33.85,-101.34 136.59,-198.23 248.67,-258.24l24.74 -11.44c105.08,-48.8 215.05,-66.77 295.14,-56.51 85,11.21 134.95,54.41 166.25,114.42l21.01 44.12c18.68,49.98 27.08,107.88 21.25,164.38 -6.3,72.61 -34.09,142.67 -73.32,198.94 -39.46,56.27 -90.59,99.23 -105.78,142.66 -13.3,42.5 7.95,86.63 6.07,117.69 -1.87,29.41 -31.52,46.47 -67.71,63.28zm85.22 262.91l0 0c76.34,-41.79 118.14,-127.95 96.2,-185.86 -12.14,-32.45 -37.6,-52.31 -69.58,-59.54 -41.56,-9.1 -67.71,4.68 -118.38,24.99 -28.72,13.3 -57.67,31.52 -77.99,55.33 -32.46,38.76 -41.33,81.02 -27.08,125.15 11.21,29.65 38.52,54.87 72.85,62.81 32.46,8.64 76.12,-0.47 110.44,-16.58l13.55 -6.3z"/>
    </g>
    <g>
     <path class="fil1" d="M15147.61 5184.93c-38.98,-8.64 -83.12,-22.89 -93.87,-66.54 -6.06,-23.34 -2.8,-55.1 6.77,-86.86 7.95,-26.15 20.08,-51.37 35.03,-71.68 28.72,-43.66 63.75,-57.9 114.18,-71.68 50.9,-15.17 115.12,-31.75 168.12,-68.42 47.16,-32.21 81.72,-80.32 95.96,-127.24l3.73 -19.85c9.35,-52.3 -13.77,-98.77 -57.9,-126.32 -14.71,-9.1 -32.45,-16.11 -50.9,-20.31 -37.12,-8.4 -77.52,-5.61 -112.55,8.64 -42.96,18.44 -77.05,57.9 -88.02,93.63l-2.57 15.64c-6.77,36.66 17.74,64.44 35.96,90.6 9.81,18.44 19.84,35.49 14.95,51.83 -2.57,8.17 -7,16.11 -18.21,23.82 -32.69,20.54 -102.97,41.79 -162.51,28.49l-6.07 -1.4c-60.94,-16.58 -106.71,-67.95 -110.91,-147.1 -2.33,-28.49 1.4,-61.64 10.97,-93.16 17.29,-56.51 54.18,-113.02 109.75,-150.6 88.49,-59.54 229.06,-73.78 354.45,-53l26.61 6.06c113.02,25.22 211.08,78.22 268.29,135.2 60.47,60.7 73.78,125.38 62.1,192.17l-10.27 47.86c-15.64,50.9 -44.37,102.03 -83.36,143.36 -49.27,53.7 -113.94,92.22 -179.56,113.02 -65.61,20.54 -132.38,23.34 -170.91,48.56 -36.43,25.68 -46.71,73.54 -67.02,96.89 -19.37,21.95 -53.23,17.28 -92.22,8.4zm-92.69 260.58l0 0c85.92,13.3 171.61,-29.42 189.6,-88.5 10.04,-33.16 2.1,-64.21 -18.68,-89.66 -27.31,-32.69 -56.51,-37.6 -109.27,-52.32 -30.83,-7 -65.15,-10.03 -95.51,-3.72 -49.49,10.97 -82.19,38.98 -97.83,82.65 -9.34,30.36 -3.04,67.02 19.62,94.35 20.32,26.61 60.71,45.99 97.6,54.17l14.48 3.04z"/>
    </g>
   </g>
   <g>
    <g>
     <path class="fil2 str0" d="M6426.01 10974.15c-99.25,-881.03 -506.84,-1727.39 -1149.77,-2330.26"/>
     <g>
      <path class="fil3" d="M5396.73 8762.74c-109.51,-387.6 -437.57,-702.59 -825.87,-792.94 104.37,379.89 420.52,691.36 825.87,792.94z"/>
      <path class="fil3" d="M5669.21 9054.84c-122.11,-160.18 -170.45,-368.93 -167.17,-571.6 3.5,-202.67 54.86,-401.38 115.57,-594.71 140.33,369.16 169.74,780.57 51.6,1166.31z"/>
      <path class="fil3" d="M5995.4 9573.42c-122.36,-392.26 -17.74,-848.74 262.92,-1147.85 46.23,386.43 -39.23,787.8 -262.92,1147.85z"/>
      <path class="fil3" d="M6226.56 10099.95c15.41,-455.77 268.29,-897.08 652.15,-1137.34 -18.68,489.63 -280.67,964.32 -652.15,1137.34z"/>
      <path class="fil3" d="M6404.48 10731.55c91.53,-470.48 460.22,-875.14 916.46,-1005.19 -154.34,438.27 -481.24,812.32 -916.46,1005.19z"/>
      <path class="fil3" d="M6850.89 10974.15c202.94,-131.42 444.16,-202.6 684.63,-191 -54.32,67.51 -112.87,131.48 -175.31,191l-509.32 0z"/>
      <path class="fil3" d="M5519.78 8903.29c-160.65,-81.01 -345.81,-104.13 -525.13,-88.96 -179.09,15.17 -353.51,66.78 -523.03,128.42 315.91,195.9 746.48,181.43 1048.15,-39.46z"/>
      <path class="fil3" d="M5872.81 9384.53c-172.31,-130.53 -399.97,-160.41 -609.64,-117.22 -209.68,43.2 -403.95,153.41 -581.17,283.7 371.95,117.21 787.57,76.58 1190.81,-166.49z"/>
      <path class="fil3" d="M6142.97 9888.17c-443.4,-77.52 -911.79,-14.71 -1296.59,174.19 212.72,96.67 458.58,133.56 691.14,103.9 232.56,-29.89 450.18,-126.33 605.44,-278.1z"/>
      <path class="fil3" d="M6333.97 10508.33c-444.1,-155.97 -959.42,-123.75 -1364.76,85.22 407.21,199.87 930.47,179.09 1364.76,-85.22z"/>
      <path class="fil3" d="M6058.82 10974.15c-11.38,-0.23 -22.77,-0.22 -34.17,0l34.17 0z"/>
     </g>
    </g>
    <g>
     <path class="fil2 str0" d="M2598.23 10974.15c-315.68,-834.76 -980.63,-1537.01 -1806.22,-1880.55"/>
     <g>
      <path class="fil3" d="M928.61 9154.54c-208.97,-284.86 -578.13,-443.4 -928.61,-399.04 202.44,279.96 560.39,439.21 928.61,399.04z"/>
      <path class="fil3" d="M1244.05 9311.21c-150.36,-94.34 -254.04,-251 -313.12,-418.41 -58.84,-167.42 -76.58,-346.5 -84.76,-523.73 229.06,260.11 378.96,589.11 397.87,942.15z"/>
      <path class="fil3" d="M1673.44 9637.4c-221.11,-284.86 -273.18,-691.84 -130.52,-1023.17 155.98,303.31 207.11,659.15 130.52,1023.17z"/>
      <path class="fil3" d="M2026.03 9999.31c-126.09,-378.95 -49.74,-818.86 196.13,-1133.37 133.79,407.68 60.24,877.92 -196.13,1133.37z"/>
      <path class="fil3" d="M2366.22 10463.74c-67.25,-414.22 116.51,-859.26 456.48,-1105.6 5.14,407.21 -152.93,814.19 -456.48,1105.6z"/>
      <path class="fil3" d="M2614.8 10974.15c63.74,-372.45 347.34,-700.2 708.27,-813.49 -114.77,335.6 -329.09,636.24 -644.07,813.49l-64.2 0z"/>
      <path class="fil3" d="M1073.83 9232.29c-158.3,-17.51 -319.41,20.08 -463.95,87.33 -144.53,67.25 -273.88,162.74 -396,265.25 322.22,64.2 676.19,-79.16 859.95,-352.58z"/>
      <path class="fil3" d="M1513.74 9519.72c-183.06,-54.4 -381.52,-9.57 -542.87,89.9 -161.34,99.46 -289.3,249.36 -397.17,410.47 345.34,-17.28 678.76,-177.69 940.04,-500.37z"/>
      <path class="fil3" d="M1891.99 9850.81c-392.74,71.69 -763.06,266.42 -1025.73,539.14 206.4,14.48 422.39,-30.35 606.62,-125.85 184.46,-95.49 336.23,-241.2 419.11,-413.29z"/>
      <path class="fil3" d="M2239.67 10301.92c-417.02,7.47 -835.91,191.47 -1109.56,486.83 399.74,39.93 828.89,-137.06 1109.56,-486.83z"/>
      <path class="fil3" d="M2487.64 10732.71c-242.87,-29.83 -478.16,61.9 -659.21,241.43l507.78 0c55.1,-72.48 105.87,-153.17 151.43,-241.43z"/>
     </g>
    </g>
    <g>
     <path class="fil2 str0" d="M14204.07 10974.15c211.18,-907.38 822.97,-1718.97 1646.13,-2158.41"/>
     <g>
      <path class="fil3" d="M15720.14 8889.52c180.72,-303.54 532.83,-496.87 886.11,-486.13 -174.65,297.94 -515.55,490.8 -886.11,486.13z"/>
      <path class="fil3" d="M15421.04 9075.61c140.57,-108.35 228.82,-274.11 271.55,-446.43 42.74,-172.32 42.97,-352.34 34.09,-529.57 -202.9,280.89 -320.35,622.97 -305.64,976z"/>
      <path class="fil3" d="M15025.03 9441.49c192.87,-304.7 205.48,-714.71 31.99,-1030.87 -126.32,316.85 -142.9,675.96 -31.99,1030.87z"/>
      <path class="fil3" d="M14708.89 9835.63c88.96,-389.23 -28.96,-819.79 -304.02,-1109.32 -93.86,418.65 24.29,879.57 304.02,1109.32z"/>
      <path class="fil3" d="M14414.68 10330.41c27.08,-418.88 -198.47,-844.08 -560.38,-1056.79 34.08,406.04 230.46,795.98 560.38,1056.79z"/>
      <path class="fil3" d="M14225.32 10898.26c-87.79,-380.6 -409.78,-696.98 -792,-777.53 156.9,346.27 423.78,641.88 792,777.53z"/>
      <path class="fil3" d="M15583.09 8980.81c155.97,-32.68 319.89,-10.49 470.25,42.51 150.36,53 288.13,135.89 419.59,226.02 -314.52,94.79 -680.64,-14.01 -889.84,-268.53z"/>
      <path class="fil3" d="M15172.61 9309.11c176.98,-71.68 378.95,-46.23 548.93,37.35 170.22,83.6 311.95,220.42 434.76,370.56 -345.34,16.11 -692.54,-111.61 -983.7,-407.91z"/>
      <path class="fil3" d="M14827.96 9674.99c397.64,33.86 785.24,192.17 1072.67,438.27 -204.07,34.08 -423.32,10.28 -615.96,-67.01 -192.63,-77.29 -357.71,-207.81 -456.71,-371.26z"/>
      <path class="fil3" d="M14525.12 10157.39c415.85,-32.46 850.61,110.45 1151.12,378.26 -393.9,77.99 -838,-56.98 -1151.12,-378.26z"/>
      <path class="fil3" d="M14319.66 10610.13c317.1,-70.38 641.22,73.74 856.67,364.02l-534.42 0c-118.01,-93.98 -227.06,-216.52 -322.26,-364.02z"/>
     </g>
    </g>
    <g>
     <path class="fil2 str0" d="M10813.82 10974.15c-107.17,-880.3 -53.11,-1777 163.85,-2626.09"/>
     <g>
      <path class="fil3" d="M10936.11 8511.04c-107.65,-334.59 -7.95,-724.3 243.53,-951.96 70.05,345.8 -25.45,718.23 -243.53,951.96z"/>
      <path class="fil3" d="M10860.91 8911.47c-66.07,-350 -282.76,-671.05 -579.99,-859.48 22.41,353.27 255.44,689.26 579.99,859.48z"/>
      <path class="fil3" d="M10783.4 9566.65c-90.82,-184.93 -183.28,-372.65 -318.71,-526.75 -135.43,-154.11 -321.99,-273.19 -521.15,-278.33 95.73,171.15 192.39,344.16 323.14,489.4 130.76,145 300.28,262.22 516.72,315.68z"/>
      <path class="fil3" d="M10748.14 10203.39c-180.25,-337.63 -519.04,-583.5 -885.87,-643.04 167.41,352.58 523.96,606.38 885.87,643.04z"/>
      <path class="fil3" d="M10806.05 10900.14c-245.87,-306.58 -618.76,-502.26 -999.58,-524.9 222.75,318.25 611.76,506.45 999.58,524.9z"/>
      <path class="fil3" d="M10907.38 8694.33c141.96,-245.88 389.7,-422.4 665.23,-474 -94.11,282.53 -368.45,486.83 -665.23,474z"/>
      <path class="fil3" d="M10810.02 9302.34c180.95,-318.95 537.49,-520.93 901.04,-509.95 -181.89,325.72 -534.7,540.3 -901.04,509.95z"/>
      <path class="fil3" d="M10753.98 9943.04c208.05,-311.94 576.73,-501.08 949.15,-487.06 -251.47,263.37 -580.94,446.43 -949.15,487.06z"/>
      <path class="fil3" d="M10779.43 10616.67c175.35,-327.59 537.27,-536.33 905.25,-521.86 -210.85,295.84 -552.67,486.6 -905.25,521.86z"/>
      <path class="fil3" d="M11062.82 10974.15c193.93,-197.3 461.42,-319.37 738.38,-324.09 -114.06,113.65 -228.84,227.82 -357.08,324.09l-381.3 0z"/>
     </g>
    </g>
   </g>
   <g>
    <g>
     <g>
      <path class="fil4" d="M3117.14 3362.29c0,0 -118.38,-457.42 -494.31,-402.54 -375.69,54.87 -470.72,323.38 -449,635.8 21.71,312.41 17.05,682.26 -394.61,913.19 -411.64,230.92 9.34,525.82 79.63,706.07 70.04,180.5 9.57,421.92 -187.5,567.16 -197.07,145.24 -240.04,668.96 438.26,629.27 678.3,-39.7 922.29,-518.13 791.54,-681.11 -130.99,-162.74 -359.82,-515.78 -130.52,-586.07 229.29,-70.51 658.45,-818.85 532.82,-1214.62 -125.38,-395.54 -186.32,-567.16 -186.32,-567.16z"/>
      <path class="fil5" d="M2760.12 3270.06c131.28,0 237.7,100.14 237.7,223.68 0,123.54 -106.42,223.69 -237.7,223.69 -131.27,0 -237.69,-100.15 -237.69,-223.69 0,-123.54 106.42,-223.68 237.69,-223.68z"/>
     </g>
     <g>
      <g>
       <path class="fil6" d="M3851.11 10974.15c-53.01,-222.94 -108.82,-456.57 -169.15,-706.79 -0.7,-3.5 -1.87,-7.24 -2.57,-10.73 0,256.77 3.68,489.22 9.74,717.52l-1162.28 0c-160.83,-748.16 -242.25,-1245.44 -183.97,-1754.69 32.46,-283.23 108.11,-569.96 237.23,-905.5 51.14,-133.55 111.14,-274.81 180.26,-426.82 623.65,114.88 1241.48,243.3 1855.8,334.59 0,1.86 0.23,3.96 0.23,5.6 20.55,318.72 4.44,290.01 14.02,661.49 18.67,121.65 36.65,239.09 53.47,352.34 102.89,691.15 173.01,1235.87 228.63,1732.99l-1061.4 0z"/>
       <path class="fil7" d="M4683.64 9241.63c-767.02,179.55 -1577.24,172.08 -2341,-21.95 32.45,-283.22 108.11,-569.95 237.23,-905.5 678.53,-36.18 1357.29,-65.14 2036.28,-86.38 20.55,318.71 4.44,290 14.01,661.48 18.68,121.65 36.42,239.09 53.47,352.34z"/>
       <path class="fil7" d="M3851.06 10974.15c-53,-222.87 -108.79,-456.42 -169.1,-706.55 -0.24,-4.91 -0.47,-9.58 -0.47,-14.48 -2.1,-58.37 -4.2,-117.21 3.27,-186.8 123.52,-62.81 246.81,-125.62 362.85,-191.7 -12.67,366.19 -15.9,732.92 -9.63,1099.52l-186.92 0z"/>
      </g>
      <g>
       <g>
        <path class="fil2 str1" d="M3799.4 9003.46c51.6,338.57 47.86,685.77 -10.97,1023.17"/>
        <path class="fil2 str1" d="M3976.39 8976.85c2.33,221.12 66.77,447.37 3.97,659.62 -11.45,38.99 -27.79,77.76 -55.81,107.17 -28.02,29.42 -69.58,48.33 -109.51,41.09"/>
       </g>
       <g>
        <path class="fil2 str2" d="M2668.59 8556.32c-133.09,390.64 -174.65,808.12 -161.81,1220.47 12.53,402.45 76.01,801.57 151.33,1197.35"/>
        <path class="fil2 str2" d="M2773.2 8762.97c9.1,156.21 1.39,313.12 -23.35,467.69 -6.31,38.99 -14.01,78.92 -36.66,111.14 -41.8,59.31 -120.71,76.58 -192.17,88.96"/>
       </g>
      </g>
     </g>
     <g>
      <path class="fil8" d="M4012.58 5541.7c0,0 221.82,1.17 431.26,187.26 155.74,138.47 338.34,493.37 817.46,1402.83 0,0 -180.95,734.1 -303.07,634.39 -1146.92,-933.96 -945.65,-2224.48 -945.65,-2224.48z"/>
      <path class="fil9" d="M5261.3 6937.29c-121.65,-48.1 -334.83,37.36 -419.59,137.06 -88.72,104.13 -127.95,275.29 -111.14,411.19 16.82,135.89 109.04,270.38 238.64,313.81 129.82,43.42 335.06,-4.68 397.86,-126.32 51.61,-100.18 34.09,-221.36 3.74,-329.93 -30.59,-108.57 -56.75,-275.05 -109.51,-405.81z"/>
      <path class="fil10" d="M5888.23 6446.72c1.63,26.38 -55.57,79.62 -63.05,145.47 -35.26,318.24 -236.99,978.33 -450.4,1109.09 -54.41,33.16 -102.74,53.23 -145.7,63.04 0,0 -98.3,15.88 -233.5,-52.77 -29.88,-24.28 -52.76,-51.37 -70.28,-70.51 -49.03,-53.24 -117.45,-313.12 171.38,-554.55 18.45,-15.17 35.73,-31.05 52.08,-46.7 273.65,-264.78 291.63,-599.38 291.63,-599.38l229.06 -10.49 217.14 2.33c0.71,3.73 1.17,8.4 1.64,14.48z"/>
      <g>
       <path class="fil10" d="M5440.39 6440.18c0,0 -34.79,-287.66 215.52,-415.86 250.31,-128.18 423.32,-124.68 443.64,-108.34 20.31,16.35 -100.87,134.73 -237.23,176.05 0,0 118.85,50.2 310.78,-19.38 191.94,-69.58 257.08,-168.36 315.69,-151.78 58.84,16.59 -67.48,200.58 -363.55,291.41 0,0 144.3,2.33 289.54,-47.41 145.23,-49.74 154.81,51.37 45.3,96.44 0,0 53.7,12.38 42.97,65.14 -10.74,52.53 -106.71,54.17 -106.71,54.17 0,0 44.83,24.29 14.71,71.45 -30.35,47.17 -227.41,65.61 -409.31,65.85 -181.89,0 -355.6,-39.46 -355.6,-39.46l-205.71 -38.3z"/>
       <path class="fil2 str3" d="M5875.85 6127.77c0,0 9.11,129.58 -190.76,173.71"/>
       <path class="fil2 str3" d="M6460.05 6261.09c0,0 -161.11,41.56 -321.99,39.23"/>
       <path class="fil2 str3" d="M6396.54 6380.41c0,0 -127.95,28.72 -325.03,20.31"/>
      </g>
     </g>
     <g>
      <path class="fil11" d="M4726.83 9149.64c-292.33,186.32 -1481.05,97.83 -2129.92,-93.87 -1.86,-152 -1.4,-283 19.39,-464.65 -94.34,174.88 -139.86,263.61 -191.7,405.81 -49.27,-19.38 -92.7,-39.46 -128.89,-60.24 0,0 422.39,-1155.79 374.75,-1426.64 -49.74,-282.77 -466.05,-1231.21 -374.75,-1430.38 85.45,-186.33 235.59,-318.95 416.08,-410.01 349.77,-176.99 813.95,-199.63 1142.01,-162.98 121.42,13.55 224.39,35.5 296.06,60.47 213.19,74.72 454.15,995.15 472.6,1350.99 17.97,356.08 104.36,2231.5 104.36,2231.5z"/>
      <path class="fil9" d="M3853.57 5506.91c5.37,314.04 -51.13,678.3 -198.23,960.12 -337.87,-238.16 -629.03,-505.51 -943.78,-797.14 349.77,-177.23 813.72,-199.87 1142.01,-162.98z"/>
      <path class="fil8" d="M3041.95 8071.36c351.17,458.35 905.49,755.12 1481.97,793.18 -296.77,57.67 -612.21,13.54 -881.9,-122.81 -269.68,-136.59 -491.97,-364.73 -600.08,-670.36z"/>
     </g>
     <g>
      <path class="fil10" d="M3627.78 6288.41c-284.62,-178.16 -528.62,-395.3 -753.71,-630.89 32.45,-97.84 53,-201.04 60.24,-307.04 7,-99.7 2.1,-201.51 -16.58,-303.54 231.16,20.54 399.28,5.61 624.35,13.07 3.28,71.44 11.92,176.51 31.76,279.49 10.74,56.03 28.25,94.09 50.43,119.07 32.69,37.13 75.42,46 120.71,43.9 7.71,264.78 -27.31,541.93 -117.22,785.94z"/>
      <path class="fil12" d="M3624.51 5459.05c-105.07,24.05 -213.87,30.35 -321.05,17.5 -130.05,-15.41 -256.37,-59.31 -369.15,-125.85 7,-99.7 2.1,-201.51 -16.58,-303.54 231.16,20.55 399.28,5.61 624.35,13.07 3.28,71.44 11.92,176.51 31.76,279.49 10.97,56.27 28.49,94.33 50.66,119.32z"/>
     </g>
     <g>
      <g>
       <g>
        <path class="fil10" d="M3285.48 8553.75c-45.07,-3.26 -72.15,-35.49 -111.85,-83.58 -17.04,-20.08 -35.25,-42.97 -58.84,-68.18 -79.86,-84.53 -204.07,-83.6 -204.07,-83.6 5.14,1.4 100.17,30.6 188.67,143.84 91.76,116.27 148.96,341.59 94.55,339.73 -54.64,-2.81 -123.51,-96.9 -123.51,-96.9 12.61,43.43 11.67,142.2 -31.76,153.4 -4.43,1.87 -8.63,2.34 -14,1.4 -54.41,-6.77 -92.23,-70.75 -96.67,-78.92 12.83,52.76 -19.62,145 -85.46,92 -65.84,-53 -180.5,-221.12 -180.5,-221.12 0,0 0,0 -0.46,0.24 -0.47,0.24 -0.71,0.7 -1.63,1.17 -19.62,14.71 -184.93,94.34 -354.91,34.33 -142.67,-50.44 -195.67,-135.44 -195.67,-135.44l197.53 -339.73c0,0 124.91,40.17 265.95,-0.7 19.38,-5.37 39.23,-12.37 58.84,-21.71 0.94,-0.24 1.87,-0.71 2.81,-1.17 53.94,-19.39 100.4,-33.63 130.05,-39.23 61.18,-11.21 118.85,-8.63 164.61,5.61 57.67,18.45 106.7,39.22 147.33,60.47 128.19,68.19 179.33,144.77 192.64,176.05 17.97,42.73 80.78,166.71 16.34,162.03z"/>
        <path class="fil2 str3" d="M2917.96 8766.71c0,0 -92.22,-186.33 -176.28,-225.79"/>
        <path class="fil2 str3" d="M3063.2 8687.79c0,0 -67.95,-185.39 -187.73,-241.9"/>
       </g>
       <g>
        <path class="fil10" d="M2380.23 8235.51c-99.69,155.97 -151.53,259.18 -203.61,362.39 -1009.16,-682.97 -1036.01,-898.26 -1006.82,-1005.89 4.43,-16.58 10.04,-30.35 13.54,-42.96 10.51,-36.19 148.97,-266.42 273.88,-383.17 47.17,-44.36 92.46,-72.15 127.96,-67.48 59.31,7.71 89.43,56.28 107.17,121.65 31.75,115.12 26.15,282.53 75.43,375.23 55.33,69.34 113.94,142.43 175.11,214.57 138.69,164.85 289.3,325.73 437.33,425.66z"/>
        <path class="fil12" d="M1942.67 7809.84c-268.52,-21.24 -532.83,-95.49 -772.86,-218.07 4.43,-16.58 10.04,-30.35 13.54,-42.97 10.51,-36.18 148.97,-266.42 273.88,-383.16 78.45,17.74 156.68,35.73 234.89,54.41 31.76,115.11 26.16,282.52 75.43,375.22 55.57,69.34 114.18,142.43 175.12,214.57z"/>
       </g>
      </g>
      <g>
       <path class="fil11" d="M2917.96 6634.45c-52.76,-275.76 -161.34,-907.82 -440.6,-784.07 -226.26,100.16 -737.83,701.64 -1146.69,1342.82 69.59,162.5 474,353.04 663.36,493.13 465.82,-509.02 627.63,-545.68 923.93,-1051.89z"/>
       <path class="fil9" d="M1324.85 7150.46c259.88,196.84 492.43,327.13 784.53,456.01 -58.84,82.19 -66.09,126.33 -124.92,208.52 -577.42,-229.3 -800.88,-372.19 -800.88,-372.19 0,0 25.46,-153.64 141.27,-292.34z"/>
       <g>
        <path class="fil8" d="M2579.87 7107.97c91.29,-94.79 173.71,-199.86 229.98,-318.71 56.27,-118.85 85.69,-252.64 69.58,-383.4 54.17,132.86 52.31,287.43 -4.9,419.12 -57.44,131.23 -169.52,237.93 -294.67,282.99z"/>
        <path class="fil8" d="M2734.91 6977.68c157.84,-76.59 297.47,-189.83 404.64,-328.52 -92.46,215.28 -293.97,380.36 -523.03,428.92 48.8,-36.89 87.79,-85.46 118.38,-100.4z"/>
       </g>
      </g>
     </g>
     <g>
      <path class="fil12" d="M4348.81 4590.69c45.07,89.43 -26.16,209.9 -159.01,268.99 -132.86,59.07 -276.93,34.31 -321.76,-55.11 -44.83,-89.43 26.15,-209.91 159.01,-268.99 132.63,-59.07 276.93,-34.32 321.76,55.11z"/>
      <g>
       <path class="fil10" d="M4095 4519.71c-7.94,475.39 -188.43,815.35 -582.56,857.85 -372.66,40.16 -905.49,-313.12 -978.34,-873.96 -61.18,-471.43 331.8,-862.76 774.03,-856.23 442.47,6.31 794.58,396.95 786.87,872.34z"/>
       <path class="fil12" d="M2527.1 4673.35c0,0 26.62,-240.04 210.38,-371.26 183.76,-131.46 244.93,-255.91 244.93,-255.91 0,0 198.48,117.46 494.31,93.4 295.83,-24.05 471.19,-1.86 540.54,130.52 69.34,132.39 182.36,-187.5 0,-336.23 -182.36,-148.73 -1050.96,-366.35 -1068.71,-352.57 -17.74,13.77 -142.66,41.55 -263.85,127.95 -121.18,86.39 -304.93,338.8 -290.22,376.85l132.62 587.24z"/>
      </g>
      <g>
       <path class="fil13" d="M4238.83 3979.65c0.47,360.74 -148.74,677.12 -148.74,677.12 -19.61,-520.93 -201.03,-608.49 -553.84,-613.39 -352.8,-4.44 -622.25,-179.79 -622.25,-179.79 19.61,161.35 -163.69,286.26 -258.95,486.6 -91.3,191.93 -143.13,307.04 -143.13,307.04 -106.01,-219.25 -202.44,-424.26 -214.35,-679.7 -5.14,-99.46 5.37,-192.16 38.52,-270.85 117.45,-281.12 426.36,-290.23 426.36,-290.23 401.61,-461.15 1239.61,-281.35 1415.9,198 44.14,120.02 60.48,245.17 60.48,365.19z"/>
       <path class="fil14" d="M4238.83 3979.65c0,0 -138,-459.76 -565.75,-622.27 -427.99,-162.27 -828.67,169.28 -828.67,169.28 0,0 -512.27,34.56 -546.83,451.34 -5.14,-99.47 5.37,-192.17 38.52,-270.85 117.45,-281.12 426.36,-290.23 426.36,-290.23 401.61,-461.14 1239.61,-281.35 1415.9,198 44.14,119.55 60.48,244.7 60.48,364.73z"/>
      </g>
      <path class="fil10" d="M2291.03 4528.81c-47.86,88.03 19.39,210.62 150.15,273.43 130.75,62.81 275.52,42.5 323.38,-45.76 47.86,-88.03 -19.39,-210.62 -150.14,-273.42 -130.76,-62.81 -275.52,-42.27 -323.39,45.75z"/>
      <g>
       <g>
        <g>
         <path class="fil15" d="M3893.74 4598.86c-20.55,1.4 -35.97,-20.54 -38.76,-56.03 -2.81,-35.5 8.64,-59.32 29.18,-60.95 20.55,-1.39 35.96,20.55 38.76,56.04 2.8,35.49 -8.41,59.54 -29.18,60.94z"/>
        </g>
       </g>
       <g>
        <g>
         <path class="fil15" d="M3335.45 4657.47c-20.78,1.4 -35.96,-20.54 -38.76,-56.04 -2.8,-35.49 8.64,-59.31 29.18,-60.94 20.55,-1.4 35.97,20.54 38.76,56.04 2.81,35.49 -8.63,59.31 -29.18,60.94z"/>
        </g>
       </g>
       <path class="fil2 str4" d="M3748.03 4640.19c31.3,60.24 31.98,135.43 2.1,196.37"/>
       <path class="fil16" d="M3518.74 4914.32c-84.76,0.7 -192.39,99.69 -117.68,153.63 42.96,30.83 81.48,-23.58 131.91,-4.9 44.6,16.58 109.98,89.19 141.26,9.1 21.72,-55.8 -16.11,-159.01 -155.5,-157.83z"/>
       <path class="fil2 str5" d="M3714.64 4230.18c71.21,-52.08 175.35,-54.18 248.66,-4.91"/>
       <path class="fil2 str5" d="M3355.07 4340.39c-71.45,61.64 -173.5,91.76 -270.39,79.62"/>
      </g>
     </g>
    </g>
    <g>
     <g>
      <g>
       <path class="fil17" d="M8345.9 10974.15c44.96,-375.09 88.66,-672.11 128.25,-834.27 0.24,-1.4 0.71,-2.8 0.94,-3.97l59.51 838.24 1250.17 0c29.34,-707.19 50.42,-1458.08 33.84,-1908.1 -0.95,-19.62 -1.64,-38.76 -2.57,-57.2 -1.63,-25.69 -2.81,-49.27 -4.44,-72.39 -5.37,-83.59 -12.84,-151.3 -22.65,-199.63l-735.96 -81.02 -89.67 -9.81 -1709.4 -200.1c0,0 -10.97,112.08 -15.87,204.3 -0.24,4.91 -0.47,10.28 -0.94,15.65 -1.4,24.05 -2.81,50.66 -4.44,79.85 -7.23,137.77 -17.51,330.63 -29.18,565.28 -21.78,438.11 -48.86,1021.49 -73.14,1663.17l1215.55 0z"/>
       <path class="fil7" d="M9818.85 9066.27c-847.34,239.1 -1738.11,322.46 -2615.12,244.94 11.68,-234.66 21.96,-427.53 29.18,-565.28 288.6,33.85 582.8,10.27 873.26,-13.08 315.69,-25.68 631.36,-51.13 947.05,-76.81l735.96 81.01c9.81,48.34 17.29,116.05 22.65,199.64 1.63,23.11 2.81,46.7 4.44,72.38 0.94,18.45 1.63,37.6 2.57,57.2z"/>
       <path class="fil7" d="M8849.37 9855.96c-37.69,382.85 -69.21,758.75 -92.98,1118.19l-221.81 0 -59.49 -838c-0.23,1.17 -0.7,2.57 -0.94,3.97 3.04,-21.96 6.54,-43.2 10.5,-63.52 147.34,-51.6 284.16,-150.6 364.72,-220.64z"/>
      </g>
      <g>
       <g>
        <path class="fil2 str1" d="M8593.24 8770.44c33.15,416.55 24.28,836.37 -26.39,1251.29"/>
        <path class="fil2 str1" d="M8822.06 8777.45c23.35,223.91 46.7,451.57 4.67,672.46 -11.68,60.94 -28.96,122.58 -65.85,172.55 -36.89,49.97 -96.67,86.63 -158.54,81.49"/>
       </g>
       <path class="fil2 str1" d="M7401.96 8910.3c-4.2,92 -7.48,195.43 -14.95,258.01 -14.71,122.57 -31.99,274.81 -171.61,294.2"/>
       <path class="fil2 str1" d="M9616.16 8886.26c0,121.88 0.71,166.01 3.04,245.4 2.34,79.39 4.2,160.64 29.42,234.89 25.21,74.02 79.39,140.8 148.5,151.78"/>
      </g>
     </g>
     <g>
      <g>
       <path class="fil18" d="M10988.41 7211.88c-74.72,367.98 -1222.56,1373.4 -1227.01,1374.33l-262.44 -422.86c0,0 562.02,-633.46 707.71,-1002.62 0,-0.23 0.47,-0.7 0.47,-0.94 -7.47,-9.1 -14.71,-18.21 -21.95,-28.01 -22.18,-29.19 -42.73,-56.98 -61.87,-83.6 -106.01,-146.63 -169.98,-254.5 -208.51,-332.25 -17.98,-36.66 -30.6,-66.77 -39,-91.06 24.06,-38.76 47.64,-71.45 57.67,-77.29 3.28,-2.34 13.78,-7.01 28.96,-13.07l152.24 -1.87 475.86 -5.37 17.98 -12.15c0,0 82.19,91.3 170.68,212.95 112.32,154.82 234.66,358.41 209.21,483.8z"/>
       <path class="fil12" d="M10123.32 7048.19c230.22,-80.55 450.64,-188.19 655.88,-320.12 -88.49,-121.65 -170.68,-212.95 -170.68,-212.95l-17.98 12.15 -475.86 5.37c-66.54,61.18 -133.32,122.12 -199.86,183.29l208.51 332.25z"/>
      </g>
      <path class="fil19" d="M9085.44 5093.4c30.58,-149.91 491.03,-34.08 778.46,297 287.44,331.1 814.65,1088.78 814.65,1088.78l-802.98 613.16c0,0 -892.65,-1494.83 -790.14,-1998.93z"/>
     </g>
     <g>
      <g>
       <g>
        <path class="fil18" d="M8394.76 5648.41c-65.61,-28.95 -517.88,-222.75 -343.46,-755.81 1.63,-4.91 3.27,-9.81 4.67,-14.48 1.4,-3.73 2.8,-7.95 3.96,-12.61 24.75,-82.43 46.23,-195.9 39.22,-327.59l331.33 45.06 334.37 0c-11.21,58.15 -16.11,113.48 -16.58,164.61 -0.47,67.02 44.13,346.05 44.13,346.05 0,0 -31.06,496.4 -397.64,554.77z"/>
        <path class="fil12" d="M8748.51 4747.36c-61.64,53.94 -288.13,218.08 -692.53,130.52 1.4,-3.73 2.8,-7.94 3.96,-12.61 24.75,-82.43 46.23,-195.9 39.22,-327.58l331.33 45.06 334.37 0c-10.97,58.38 -15.88,113.71 -16.35,164.61z"/>
       </g>
       <path class="fil19" d="M9878.15 8988.06c-452.51,187.72 -2444.9,123.75 -2755.92,19.38 0,0 219.96,-1029.93 6.07,-2557.92 -137.99,-985.57 69.34,-1092.74 183.76,-1225.13 90.82,-105.07 311.47,-171.37 480.3,-208.51 115.57,-25.22 206.63,-36.89 215.51,-37.59 -16.11,438.96 409.54,614.31 409.54,614.31 0,0 372.18,-234.2 359.58,-598.2 7.47,0.23 73.09,-1.17 162.98,3.5 176.05,9.34 445.74,41.33 554.54,151.07 123.52,124.22 161.58,220.19 267.82,1209.49 55.8,520.92 115.81,2629.6 115.81,2629.6z"/>
       <path class="fil20" d="M8939.98 4997.9c-17.51,205.48 -96.67,406.04 -226.02,566.68 -58.85,73.33 -132.39,141.03 -223.92,162.75 -123.29,29.18 -250.77,-31.52 -349.77,-110.44 -185.39,-147.58 -310.55,-367.28 -347.9,-601.01 115.57,-25.22 206.63,-36.89 215.51,-37.59 -16.11,438.96 409.54,614.31 409.54,614.31 0,0 372.18,-234.2 359.58,-598.2 7.47,0.23 73.09,-1.17 162.98,3.5z"/>
       <g>
        <path class="fil20" d="M9498.96 7472.45c-199.87,417.49 -521.15,742.5 -886.34,937.24 -365.18,194.73 -772.63,262.68 -1170.96,227.89 244.7,75.88 503.4,53.7 752.3,1.63 288.36,-60.47 575.8,-162.98 819.79,-358.17 244,-195.2 441.31,-492.44 485.2,-808.59z"/>
        <path class="fil20" d="M9594.22 8307.89c-579.29,411.88 -1333.95,568.32 -2029.28,420.99 254.52,129.82 551.27,147.57 836.37,129.58 223.68,-14.01 448.54,-49.27 654.94,-136.36 206.64,-87.1 394.61,-229.99 537.97,-414.22z"/>
       </g>
      </g>
      <g>
       <path class="fil20" d="M9793.16 6915.34c-46.23,-523.96 -80.09,-892.41 -155.5,-1468.67 172.32,602.41 221.82,1025.73 155.5,1468.67z"/>
       <path class="fil20" d="M9785.92 6631.18c92.46,-343.24 98.77,-683.9 116.75,-1057.72 61.87,321.51 34.32,907.82 -109.51,1334.18 -9.1,-59.08 -16.81,-241.2 -7.24,-276.45z"/>
      </g>
     </g>
     <g>
      <path class="fil12" d="M9530.48 3987.34c43.65,98.54 -36.66,225.55 -179.33,283.46 -142.67,57.9 -293.73,24.98 -337.16,-73.55 -43.66,-98.54 36.66,-225.55 179.32,-283.46 142.44,-57.9 293.51,-24.97 337.17,73.55z"/>
      <path class="fil12" d="M7366.94 3852.85c-54.41,93.17 11.43,228.12 146.63,301.9 135.42,73.55 289.06,57.91 343.23,-35.26 54.41,-93.16 -11.43,-228.11 -146.63,-301.9 -135.19,-73.54 -288.83,-57.67 -343.23,35.26z"/>
      <g>
       <path class="fil18" d="M9283.68 3827.64c-5.84,276.45 -303.08,980.9 -865.8,942.84 -665.22,-44.84 -799.71,-856.46 -786.17,-1055.39 40.4,-596.34 397.87,-970.86 864.38,-944.95 466.52,25.68 801.82,389 787.58,1057.49z"/>
       <path class="fil12" d="M7661.14 3852.15c30.82,-92.93 100.87,-166.71 163.92,-241.66 63.04,-74.96 115.57,-220.88 130.04,-307.05 95.03,74.96 205.94,127.72 309.84,142.67 112.32,16.11 218.55,10.97 248.67,-90.12 57.44,65.84 180.72,112.31 275.99,111.61 46.94,-0.47 95.74,-20.32 126.56,-55.81 79.39,90.83 190.29,116.28 190.29,116.28 0,0 135.2,266.42 150.84,374.29 8.63,-193.1 1.86,-422.63 -26.39,-617.12 -415.15,-192.17 -864.16,-310.55 -1313.62,-352.11 -169.75,268.99 -266.42,583.27 -256.14,919.03z"/>
      </g>
      <g>
       <path class="fil21" d="M9450.16 3306.48c-24.98,45.75 -57.67,86.15 -92,117.21 4.44,196.84 -21.01,397.87 -109.98,611.76 -6.07,-272.96 -45.52,-347.44 -84.29,-538.2 -93.87,-39 -177.22,-102.98 -243.07,-183.06 -23.59,58.85 -113.71,102.51 -191.7,83.36 -78.22,-19.15 -179.09,-69.35 -257.31,-145 23.58,44.36 -3.28,128.18 -90.36,134.25 -133.33,9.34 -329.7,-84.29 -469.32,-176.52 -86.16,381.76 -155.97,321.52 -260.81,720.57 -114.41,-244.7 -170.45,-435.71 -171.16,-676.67 -0.23,-115.12 11.44,-307.28 254.98,-356.78 76.35,-139.86 175.83,-265.24 291.64,-370.08 98.53,-89.2 208.51,-162.98 326.65,-218.32 69.81,-32.92 147.57,-59.77 221.82,-40.85 74.01,18.91 137.99,99.69 115.35,176.98 133.09,-54.86 281.12,-66.31 419.59,-32.69 82.66,20.08 165.54,58.85 215.74,131.47 49.97,72.14 7.7,196.84 -52.08,278.78 105.08,50.2 215.53,166.48 223.93,288.36 5.14,68.42 -14.95,136.59 -47.64,195.44z"/>
       <path class="fil14" d="M9450.16 3306.48c3.73,-77.52 -13.31,-156.21 -50.43,-224.39 -64.44,-117.46 -187.72,-201.04 -320.82,-217.39 29.89,-34.32 60.95,-65.37 82.67,-102.97 21.71,-37.6 32.92,-83.59 20.54,-125.15 -20.54,-68.65 -95.5,-104.84 -165.78,-120.48 -152.7,-34.09 -318.25,-8.17 -452.98,71.68 8.17,-61.18 3.97,-120.24 -25.92,-156.91 -30.12,-36.89 -79.63,-53.47 -127.25,-52.77 -47.64,0.47 -93.4,15.41 -137.76,32.23 -84.76,32.21 -166.71,71.67 -244.93,117.44 98.53,-89.19 208.51,-162.97 326.65,-218.31 69.81,-32.92 147.57,-59.77 221.82,-40.85 74.02,18.91 138,99.7 115.35,176.99 133.1,-54.88 281.13,-66.32 419.59,-32.69 82.66,20.07 165.54,58.84 215.74,131.45 49.97,72.15 7.71,196.84 -52.07,278.79 105.07,50.2 215.51,166.49 223.92,288.36 4.44,67.95 -15.64,136.13 -48.33,194.97z"/>
      </g>
      <g>
       <path class="fil2 str6" d="M8645.07 3599.98c76.12,-20.54 194.27,-30.58 282.06,62.34"/>
       <path class="fil2 str6" d="M7980.56 3709.03c67.94,10.73 169.27,13.77 268.74,-30.83"/>
       <g>
        <g>
         <path class="fil22" d="M8801.51 3948.35c-21.95,-1.17 -34.55,-26.84 -32.45,-65.14 2.1,-38.3 17.51,-62.34 39.46,-61.18 21.95,1.17 34.55,26.85 32.45,65.15 -2.1,38.29 -17.74,62.33 -39.46,61.17z"/>
        </g>
       </g>
       <g>
        <g>
         <path class="fil22" d="M8203.77 3907.5c-21.96,0.7 -36.9,-23.59 -38.53,-62.11 -1.63,-38.52 11.68,-63.75 33.4,-64.44 21.95,-0.71 36.89,23.58 38.52,62.1 1.63,38.53 -11.44,63.75 -33.39,64.45z"/>
        </g>
       </g>
       <path class="fil2 str7" d="M8399.43 4003.68c-18.21,56.52 -22.41,117.69 -11.9,176.29"/>
       <path class="fil2 str7" d="M8194.43 4314c96.67,-6.07 195.19,26.62 269.22,89.43"/>
      </g>
     </g>
     <g>
      <g>
       <path class="fil12" d="M6924.23 6158.82c-16.58,315.92 -32.69,634.88 17.98,947.29 50.67,312.42 213.88,806.02 421.69,830.78 63.04,-323.39 125.85,-647.01 188.89,-970.41 10.74,-54.86 21.02,-113.71 -0.7,-165.55 -14.72,-35.25 -42.97,-63.04 -70.52,-89.66 -185.62,-180.72 -371.26,-360.98 -557.35,-552.45z"/>
       <g>
        <path class="fil19" d="M7513.8 5093.87c-225.78,22.41 -460.68,250.07 -545.91,538.43 -134.96,457.18 -166.25,827.74 -210.14,1399.78 288.36,41.1 614.09,94.8 902.69,66.32 104.83,-640 71.44,-2034.65 -146.64,-2004.53z"/>
        <path class="fil20" d="M7555.37 5361.68c81.96,556.18 92.93,1122.87 32.22,1681.85 116.98,-560.16 160.18,-1155.09 -32.22,-1681.85z"/>
       </g>
      </g>
      <g>
       <path class="fil23" d="M8122.98 5765.16c0,0 -77.75,1028.54 -187.71,1604.8 -109.98,576.26 -559.46,596.1 -617.83,564.35 -172.79,-94.1 -247.03,-420.29 -156.68,-649.57 161.82,-410.25 524.43,-1344.21 576.5,-1598.26l385.73 78.69z"/>
       <g>
        <path class="fil23" d="M8307.45 5410.95c0,0 -12.38,239.09 -184.47,354.21l-385.73 -78.69 111.14 -717.98c0,0 8.64,-219.01 106.94,-341.14 98.31,-122.12 319.65,-104.6 347.2,-33.16 27.78,71.45 -108.81,54.87 -175.59,81.02 -66.77,26.15 -91.29,190.53 -91.29,190.53 0,0 164.14,-78.45 256.84,-59.77 92.69,18.45 229.75,166.94 158.77,248.21 0,0 73.09,57.67 15.18,144.05 0,-0.23 98.06,172.09 -159.01,212.72z"/>
        <g>
         <path class="fil2 str3" d="M8289.47 5247.27c0,0 -10.28,28.95 28.48,60.71"/>
         <path class="fil2 str3" d="M8466.46 5198c0,0 -45.07,-87.55 -163.45,-63.51"/>
         <path class="fil2 str3" d="M8451.27 5053.94c0,0 -130.76,-110.21 -257.08,-35.02"/>
         <path class="fil2 str3" d="M8356.24 5271.78c-31.05,29.42 -48.79,72.62 -47.63,115.35"/>
        </g>
       </g>
      </g>
     </g>
    </g>
    <g>
     <path class="fil4" d="M13840.52 3659.99c216.21,-267.35 314.28,871.16 176.05,1194.78 -24.05,56.51 -51.83,112.08 -64.44,172.32 -12.61,60.23 -8.63,127.02 26.62,177.21 42.97,61.18 121.42,84.77 178.39,132.86 74.48,62.8 107.87,166.01 102.26,263.85 -5.6,97.83 -46.46,190.52 -99,272.95 -150.14,234.89 -472.35,371.03 -739.01,446.21 -266.65,75.19 -550.58,70.52 -823.53,24.51 -194.73,-32.92 -399.51,-95.26 -522.32,-251.24 -128.66,-163.21 -132.39,-414.44 -8.87,-581.62 61.41,-82.88 152.93,-146.16 189.13,-243.07 49.03,-131.46 -70.05,-209.9 -99.47,-319.88 -84.52,-316.85 161.35,-297.7 17.98,-1024.11 -10.51,-52.76 324.32,8.65 378.03,6.08 434.99,-21.72 872.8,15.63 1294.02,119.55 41.32,-100.88 -67.95,-313.81 -5.84,-390.41z"/>
     <path class="fil24" d="M12511.25 5806.95c-44.6,-146.86 -108.58,-287.89 -176.29,-405.81 -162.27,13.07 -415.62,59.08 -523.03,181.66 -102.03,116.27 -105.78,285.56 -118.37,439.66 -37.37,458.81 -124.7,878.87 -131.92,1339.09 -2.11,125.38 10.73,259.41 88.95,357.48 64.92,81.25 191.47,124.45 275.06,62.57 74.72,-55.33 81.72,-162.04 85.69,-254.98 24.06,-591.2 183.76,-1176.33 499.92,-1719.67z"/>
     <g>
      <path class="fil12" d="M11662.73 10263.63c-72.94,236.82 -145.97,473.65 -218.97,710.52l1440.53 0c66.1,-177.07 132.15,-354.13 198.31,-531.2 -481.92,17.28 -965.49,-22.87 -1419.87,-179.32z"/>
      <path class="fil10" d="M14445.51 9911.76c-66.26,358.76 -155.14,713.61 -265.91,1062.39l-1395.32 0c24.03,-130.88 39.71,-263.11 46.86,-395.77 538.2,-189.36 1076.64,-378.73 1614.37,-666.62z"/>
      <g>
       <g>
        <path class="fil17" d="M14259.88 10953.14c-54.96,7.52 -110.03,14.51 -165.15,21.01l-2264.88 0c-155.59,-20.61 -299.36,-45.55 -428.15,-74.25 124.69,-481.23 557.34,-2056.14 574.62,-2205.34 4.43,-37.36 9.1,-94.1 13.77,-163.45 2.57,-32.69 4.67,-67.94 6.54,-105.31 11.21,-192.62 20.78,-439.66 21.48,-642.8 0.23,-6.77 0.23,-13.54 0.23,-19.84 675.5,-23.35 1290.75,43.89 1914.42,-41.33 128.66,117.69 232.55,247.74 314.98,387.61 6.77,11.67 13.78,23.58 20.31,35.25 446.67,798.08 228.6,1896.89 -8.16,2808.46z"/>
        <path class="fil7" d="M14268.05 8144.92c-311.24,150.36 -1061.69,480.53 -2277.96,386.43 2.57,-32.69 4.67,-67.95 6.54,-105.31 11.21,-192.63 20.78,-439.67 21.48,-642.8 0.23,-6.77 0.23,-13.54 0.23,-19.85 675.5,-23.35 1290.75,43.9 1914.42,-41.32 128.66,117.68 232.56,247.74 314.98,387.6 6.77,11.67 13.54,23.35 20.31,35.26z"/>
        <path class="fil7" d="M13620.57 8959.1c-151.31,402.54 -308.68,815.59 -596.81,1135.01 -288.12,319.42 -740.87,528.15 -1153.45,406.74 738.06,-279.73 1366.87,-837.55 1750.26,-1541.76z"/>
       </g>
       <g>
        <g>
         <path class="fil2 str1" d="M12046.83 8535.31c755.59,56.04 1506.04,-70.28 2199.27,-376.16"/>
         <path class="fil2 str1" d="M14110.67 8227.81c210.62,395.53 266.66,858.78 233.97,1305.45 -32.69,446.9 -167.65,980.91 -285.79,1413.11"/>
         <path class="fil2 str1" d="M13904.27 8305.56c15.64,60.01 31.51,120.71 59.54,176.05 28.02,55.33 69.57,106.01 124.91,133.8 55.57,27.78 126.32,29.64 177.69,-5.38"/>
        </g>
        <g>
         <path class="fil2 str1" d="M12857.05 8530.17c40.4,312.89 45.3,630.2 14.25,944.25"/>
         <path class="fil2 str1" d="M13045.24 8513.13c23.59,163.92 34.79,329.47 33.4,495.01 -0.47,46 -3.04,95.51 -31.52,131.46 -37.12,46.7 -95.97,54.18 -155.5,57.91"/>
        </g>
       </g>
      </g>
     </g>
     <g>
      <g>
       <path class="fil25" d="M14063.74 7808.92c-379.19,301.9 -2001.73,282.06 -2087.66,105.54 -42.26,-86.63 -54.86,-391.8 -43.89,-760.02 20.31,-707.02 126.32,-1645.42 272.02,-1711.97 285.79,-130.76 1032.5,-102.74 1549.69,140.56 189.36,89.2 379.42,186.33 462.31,378.5 30.36,70.51 43.19,162.74 43.9,267.35 3.73,401.84 -173.49,982.52 -229.53,1189.17 -31.06,114.89 199.64,258.25 33.16,390.87z"/>
       <path class="fil26" d="M14063.74 7808.92c-379.19,301.9 -2001.73,282.06 -2087.66,105.54 -42.26,-86.63 -54.86,-391.8 -43.89,-760.02 300.97,160.17 639.3,246.33 973.19,195.2 398.1,-61.18 747.64,-310.79 1008,-617.82 132.15,-155.74 244.7,-326.19 346.5,-503.42 3.72,401.85 -173.49,982.54 -229.53,1189.19 -30.83,115.35 199.87,258.71 33.39,391.33z"/>
      </g>
      <g>
       <g>
        <path class="fil27" d="M12758.28 6004.25c241.43,125.15 657.52,208.74 755.12,165.54 180.25,-79.61 219.25,-587.46 182.12,-650.74 -52.53,-89.89 -161.34,-151.77 -265.48,-153.87 -244.94,248.67 -476.79,339.73 -671.76,639.07z"/>
        <path class="fil27" d="M13020.97 5418.88c-148.27,-148.03 -428.7,-122.12 -502.48,-53.47 -117.45,109.27 -348.37,488.01 -330.15,637.21 8.87,73.08 487.77,24.51 569.95,-6.07 85.45,-245.16 129.59,-308.45 262.68,-577.66z"/>
       </g>
       <g>
        <path class="fil28" d="M12707.15 6148.31c28.37,0 51.37,23 51.37,51.37 0,28.37 -23,51.37 -51.37,51.37 -28.38,0 -51.37,-23 -51.37,-51.37 0,-28.37 22.99,-51.37 51.37,-51.37z"/>
        <path class="fil28" d="M12676.33 6412.4c28.37,0 51.37,23 51.37,51.37 0,28.36 -23,51.36 -51.37,51.36 -28.37,0 -51.37,-23 -51.37,-51.36 0,-28.37 23,-51.37 51.37,-51.37z"/>
       </g>
      </g>
      <g>
       <path class="fil10" d="M12752.92 6019.89c325.25,-156.44 814.42,-365.65 808.12,-460.91 -3.74,-58.38 -53.01,-229.99 -60.25,-341.37 -7,-104.83 -2.1,-212.01 16.35,-319.18 -230.92,21.72 -398.81,6.07 -623.89,13.77 -3.28,75.19 -11.91,185.86 -31.52,293.97 -10.73,59.07 -28.25,99 -50.43,125.38 -32.69,38.99 -86.39,16.58 -120.71,46.23 -72.39,63.28 -22.65,372.19 62.34,642.11z"/>
       <path class="fil12" d="M12811.53 5331.33c104.84,25.21 213.64,31.98 320.57,18.44 129.83,-16.35 256.15,-62.34 368.69,-132.39 -7,-104.83 -2.1,-212 16.35,-319.18 -230.92,21.72 -398.81,6.07 -623.89,13.78 -3.28,75.19 -11.91,185.86 -31.52,293.97 -10.73,59.07 -28.02,99.22 -50.19,125.38z"/>
      </g>
      <g>
       <path class="fil10" d="M11998.26 8406.89c212.01,-113.94 304.23,-183.05 395.53,-332.26 13.78,-144.06 19.15,-288.59 24.52,-432.89 -124.92,-28.96 -254.98,-56.28 -385.04,-83.36 -35.49,-7.47 -71.67,-14.94 -107.87,-10.5 -35.96,4.44 -72.38,22.88 -89.67,55.81 -17.28,32.92 -9.11,80.78 42.97,98.3 -130.29,48.33 -363.55,140.56 -369.16,278.55 -1.17,29.18 21.95,54.87 47.4,67.72 25.46,12.83 54.41,15.17 94.34,29.17 -31.52,24.75 -45.3,71.22 -32.69,109.98 12.62,38.76 50.9,67.01 102.97,64.68 -20.08,28.49 -20.54,70.51 -0.7,99.46 19.84,28.96 58.14,42.5 90.83,32.22 -12.15,41.33 16.34,86.4 53.93,104.84 37.6,18.44 85,16.82 126.56,12.62 0.94,-26.85 3.28,-45.77 6.07,-94.34z"/>
       <path class="fil10" d="M12155.17 8069.49c648.18,124.46 1761.47,22.42 1982.36,-137.52 156.91,-113.71 240.26,-1672.98 147.34,-1880.79 -49.27,-110.21 -99.23,-214.11 -260.34,-305.88 -180.72,-102.97 -326.19,284.4 -356.79,497.58 -61.41,427.76 -45.3,762.83 -44.36,1174.94 -457.65,162.04 -952.88,226.49 -1436.69,226.49 6.31,81.49 -30.35,344.63 -31.51,425.19z"/>
      </g>
     </g>
     <g>
      <g>
       <path class="fil10" d="M12015.54 5791.08c-74.72,-148.74 -193.8,-306.58 -218.78,-415.86 -22.64,-98.77 54.41,-400.43 114.88,-454.6 72.38,-64.91 400.68,-57.91 396.47,9.33 -2.33,36.19 -37.59,61.18 -72.61,65.15 -35.03,3.96 -184.7,33.63 -203.62,40.85 -21.24,8.17 -35.95,50.91 -40.85,143.14 112.78,-86.39 152.24,-130.05 223.92,-121.65 42.97,5.14 77.06,45.07 73.78,103.2 16.82,-20.31 67.01,-21.25 89.43,-8.17 47.64,28.02 57.2,70.75 50.2,125.15 81.02,-37.59 84.53,55.1 88.49,123.99 3.97,68.87 1.4,138.46 -10.5,206.4 -7.24,41.56 -35.73,71.91 -64.21,60.01 -43.19,-17.75 -49.97,-115.35 -55.8,-175.6 -14.48,4.21 -52.53,32.69 -57.43,55.11 77.75,81.72 136.36,227.42 78.68,358.4 -184,67.02 -308.21,52.32 -392.04,-114.87z"/>
       <g>
        <path class="fil2 str4" d="M12274.96 5169.51c-63.75,34.32 -123.99,75.42 -178.86,122.58"/>
        <path class="fil2 str4" d="M12412.02 5280.65c-59.78,31.06 -114.18,72.39 -160.18,121.42"/>
       </g>
      </g>
      <g>
       <path class="fil10" d="M12420.18 5860.89c-53.94,487.3 -107.87,974.37 -161.81,1461.43 -0.47,5.14 -1.17,10.28 -1.87,15.64 -18.44,162.51 -52.07,342.3 -188.19,430.8 -136.36,88.96 -391.34,96.43 -476.56,-132.86 -3.5,-9.1 -6.31,-18.68 -9.11,-28.49 -53,-190.76 27.78,-489.4 136.83,-718.23 150.36,-314.98 269.44,-756.97 322.22,-1101.85 120.47,12.84 241.42,25.92 378.49,73.55z"/>
       <path class="fil24" d="M12256.27 7337.96c-18.44,162.51 -52.07,342.3 -188.19,430.8 -136.36,88.96 -391.33,96.43 -476.56,-132.86 -3.5,-9.1 -6.3,-18.68 -9.1,-28.49 1.86,1.87 4.2,3.96 6.06,5.61 66.77,58.61 154.81,97.36 243.76,91.06 89.9,-6.07 171.38,-56.51 237.7,-117.68 77.76,-70.99 138,-155.74 186.32,-248.44z"/>
      </g>
     </g>
     <g>
      <path class="fil12" d="M11990.33 4354.4c-47.41,94.33 27.55,221.35 167.64,283.69 140.1,62.34 292.11,36.18 339.5,-58.14 47.4,-94.33 -27.55,-221.35 -167.65,-283.69 -139.86,-62.34 -291.86,-36.19 -339.49,58.14z"/>
      <g>
       <path class="fil10" d="M12244.13 4340.16c8.17,501.54 228.59,895.67 601.72,918.08 434.75,25.92 968.06,-343.23 1044.88,-934.9 64.68,-497.34 -350,-910.16 -816.76,-903.38 -466.52,6.54 -838.01,418.65 -829.84,920.2z"/>
       <path class="fil12" d="M13695.29 4223.87c-355.61,7.24 -709.82,-175.35 -907.83,-467.44 -225.55,130.05 -415.85,320.58 -545.67,546.37 5.37,-241.66 93.39,-480.99 245.87,-668.48 37.83,-46.47 81.25,-91.06 136.59,-114.18 53.94,-22.42 114.18,-22.18 172.55,-21.02 258.25,5.61 516.02,26.85 771.69,63.28 20.08,2.81 40.86,6.07 57.2,18.21 25.92,19.38 32,55.11 35.97,87.1 21.25,173.26 37.12,346.96 33.63,556.17z"/>
      </g>
      <g>
       <path class="fil2 str4" d="M12610.25 4467.17c-32.93,63.75 -33.85,142.9 -2.33,207.34"/>
       <path class="fil2 str4" d="M12709.02 4862.71c91.3,-33.39 200.1,-13.31 273.89,50.2"/>
       <g>
        <g>
         <g>
          <path class="fil15" d="M12456.38 4462.73c21.71,1.63 37.82,-21.71 40.85,-59.08 3.05,-37.35 -9.1,-62.57 -30.82,-64.2 -21.72,-1.63 -37.83,21.72 -40.85,59.08 -3.04,37.59 9.1,62.81 30.82,64.2z"/>
         </g>
        </g>
        <g>
         <g>
          <path class="fil15" d="M13015.12 4497.3c21.72,1.63 37.83,-21.72 40.86,-59.08 3.04,-37.36 -9.1,-62.57 -30.82,-64.2 -21.72,-1.64 -37.83,21.71 -40.86,59.07 -3.04,37.36 9.1,62.58 30.82,64.21z"/>
         </g>
        </g>
        <path class="fil2 str5" d="M12342.67 4185.11c82.43,23.12 193.56,-14.71 237.7,-74.95"/>
        <path class="fil2 str5" d="M12957.92 4120.9c91.3,-32.22 201.51,-1.86 263.15,72.85"/>
       </g>
      </g>
      <g>
       <path class="fil4" d="M13960.78 4549.83c-81.72,90.12 -92.46,80.33 -188.2,132.86 -55.09,-148.03 -104.13,-276.69 -157.36,-420.29 -383.4,-72.62 -600.09,-317.56 -809.76,-632.3 -247.04,151.76 -465.82,372.18 -561.55,731.76 -88.03,-145.69 -127.25,-312.41 -127.72,-481.93 -0.24,-69.58 6.3,-139.62 18.21,-208.73 16.11,-90.83 43.67,-180.96 93.87,-258.24 50.43,-77.06 124.91,-141.27 213.41,-166.25 142.9,-40.86 292.8,-10.05 427.98,51.36 199.41,-70.99 408.15,-80.09 610.82,-22.41 67.72,19.15 134.26,47.41 196.38,83.83 124.68,71.67 232.08,175.82 295.13,300.97 121.64,240.5 63.74,614.32 -11.21,889.37z"/>
       <path class="fil29" d="M13677.31 3359.49c-257.55,-75.88 -542.16,-60.01 -788.04,48.32 -201.04,-66.31 -430.56,14.49 -580,164.38 -86.16,86.86 -148.96,193.33 -192.86,307.74 -0.23,-69.58 6.3,-139.62 18.22,-208.73 16.11,-90.83 43.66,-180.96 93.86,-258.24 50.43,-77.06 124.92,-141.27 213.41,-166.25 142.9,-40.86 292.79,-10.05 427.99,51.36 199.4,-70.99 408.15,-80.09 610.82,-22.41 67.71,19.15 134.25,47.64 196.6,83.83z"/>
      </g>
      <path class="fil10" d="M14131.68 4593.26c30.83,99 -61.64,205.7 -206.39,238.39 -144.77,32.69 -287.21,-21.01 -318.02,-120.01 -30.83,-99.01 61.64,-205.71 206.4,-238.4 144.76,-32.93 287.2,21.01 318.01,120.02z"/>
     </g>
    </g>
   </g>
  </g>
 </g>
</svg>
